{"title":"Chinese.Zodiac.2012.HDTS.NEW.XviD-Feel-Free","uid":8000868,"size":1175776331,"categoryP":"video","categoryS":"movies","magnet":"?xt=urn:btih:e4139cc4257ee369978e58ea65e65fcf5a5c242d&amp;dn=Chinese.Zodiac.2012.HDTS.NEW.XviD-Feel-Free&amp;tr=udp%3A%2F%2Ftracker.openbittorrent.com%3A80&amp;tr=udp%3A%2F%2Fopen.demonii.com%3A1337&amp;tr=udp%3A%2F%2Ftracker.coppersurfer.tk%3A6969&amp;tr=udp%3A%2F%2Fexodus.desync.com%3A6969","seeders":1,"leechers":0,"uploader":"SaM","files":7,"time":1357754164,"description":"Genre:Action | Adventure\nLanguage:English\nIMDb:http://www.imdb.com/title/tt1424310/\nSource:720p Chinese RVMB Thanks\nEncoder:Tony\nSubtitles:English,Chinese\n\nFormat : AVI\nFormat/Info : Audio Video Interleave\nFile size : 1.09 GiB\nDuration : 1h 53mn\nOverall bit rate : 1 384 Kbps\n\nVideo\nID : 0\nFormat : MPEG-4 Visual\nFormat profile : Simple@L5\nFormat settings, BVOP : No\nFormat settings, QPel : No\nFormat settings, GMC : No warppoints\nFormat settings, Matrix : Default (H.263)\nCodec ID : XVID\nCodec ID/Hint : XviD\nDuration : 1h 53mn\nBit rate : 1 247 Kbps\nWidth : 640 pixels\nHeight : 264 pixels\nDisplay aspect ratio : 2.40:1\nFrame rate : 23.976 fps\nColor space : YUV\nChroma subsampling : 4:2:0\nBit depth : 8 bits\nScan type : Progressive\nCompression mode : Lossy\nBits/(Pixel*Frame) : 0.308\nStream size : 1 009 MiB (90%)\nWriting library : XviD 64\n\nAudio\nID : 1\nFormat : AC-3\nFormat/Info : Audio Coding 3\nMode extension : CM (complete main)\nCodec ID : 2000\nDuration : 1h 53mn\nBit rate mode : Constant\nBit rate : 128 Kbps\nChannel(s) : 2 channels\nChannel positions : Front: L R\nSampling rate : 48.0 KHz\nBit depth : 16 bits\nCompression mode : Lossy\nStream size : 104 MiB (9%)\nAlignment : Split accross interleaves\nInterleave, duration : 42 ms (1.00 video frame)\nInterleave, preload duration : 500 ms\n\nPlot:\nA man searches the world for a set of mystic artifacts - 12 bronze heads of the animals from the Chinese zodiac.\n\n &lt;a href=&quot;\nhttp://lookpic.com/O/i2/1185/lWDahuo.png&quot; rel=&quot;nofollow&quot; target=&quot;_NEW&quot;&gt;\nhttp://lookpic.com/O/i2/1185/lWDahuo.png&lt;/a&gt;\n &lt;a href=&quot;\nhttp://lookpic.com/O/i2/537/LHSBBHS.png&quot; rel=&quot;nofollow&quot; target=&quot;_NEW&quot;&gt;\nhttp://lookpic.com/O/i2/537/LHSBBHS.png&lt;/a&gt;\n &lt;a href=&quot;\nhttp://lookpic.com/O/i2/133/giM8pbCq.png&quot; rel=&quot;nofollow&quot; target=&quot;_NEW&quot;&gt;\nhttp://lookpic.com/O/i2/133/giM8pbCq.png&lt;/a&gt;","torrent":{"xt":"urn:btih:e4139cc4257ee369978e58ea65e65fcf5a5c242d","amp;dn":"Chinese.Zodiac.2012.HDTS.NEW.XviD-Feel-Free","amp;tr":["udp%3A%2F%2Ftracker.openbittorrent.com%3A80","udp%3A%2F%2Fopen.demonii.com%3A1337","udp%3A%2F%2Ftracker.coppersurfer.tk%3A6969","udp%3A%2F%2Fexodus.desync.com%3A6969"],"infoHash":"e4139cc4257ee369978e58ea65e65fcf5a5c242d","infoHashBuffer":{"type":"Buffer","data":[228,19,156,196,37,126,227,105,151,142,88,234,101,230,95,207,90,92,36,45]},"announce":[],"urlList":[]}}